<svg width="24" height="24" viewBox="0 0 24 24" fill="none" xmlns="http://www.w3.org/2000/svg">
<path fill-rule="evenodd" clip-rule="evenodd" d="M19.3801 15.8269C19.4517 15.8977 19.4913 15.9939 19.4913 16.0945C19.4913 16.1954 19.4517 16.2916 19.3801 16.3621L18.3571 17.3889C18.2833 17.4632 18.1872 17.5 18.0904 17.5C17.9933 17.5 17.8964 17.4632 17.8234 17.3889L14.2501 13.8048L10.6769 17.3889C10.6038 17.4632 10.5069 17.5 10.4099 17.5C10.3131 17.5 10.2169 17.4632 10.1431 17.3889L9.12009 16.3621C9.04852 16.2916 9.00886 16.1954 9.00886 16.0945C9.00886 15.9939 9.04852 15.8977 9.12009 15.8269L12.7077 12.25L9.11063 8.67358C8.96316 8.52578 8.96316 8.28578 9.11063 8.13794L10.1328 7.11048C10.2039 7.03966 10.2993 7 10.3998 7C10.5007 7 10.5962 7.0397 10.6666 7.11048L14.2501 10.6511L17.8335 7.11048C17.904 7.03966 17.9995 7 18.1004 7C18.2009 7 18.2963 7.0397 18.3674 7.11048L19.3896 8.13794C19.537 8.28573 19.537 8.52573 19.3896 8.67358L15.7924 12.25L19.3801 15.8269ZM23.3879 4.63558C22.9705 4.21816 22.4389 4 21.8379 4H7.875C6.7358 4 5.82577 4.44072 5.17003 5.33317L0 12.2471L5.175 19.1156L5.18344 19.1264L5.19206 19.1373C5.51569 19.5524 5.86819 19.8733 6.26972 20.0943C6.74452 20.3558 7.28461 20.5 7.875 20.5H21.8438C23.0715 20.5 24 19.4567 24 18.2031V6.20312C24 5.60214 23.8053 5.05295 23.3879 4.63558ZM22.5 18.2031C22.5 18.6174 22.258 19 21.8438 19H7.875C7.16405 19 6.73439 18.6875 6.375 18.2266L1.875 12.25L6.375 6.22947C6.82031 5.62009 7.3672 5.5 7.875 5.5H21.8203C22.2345 5.5 22.5 5.78889 22.5 6.20312V18.2031Z" fill="#5F51CB"/>
<mask id="mask0" mask-type="alpha" maskUnits="userSpaceOnUse" x="0" y="4" width="24" height="17">
<path fill-rule="evenodd" clip-rule="evenodd" d="M19.3801 15.8269C19.4517 15.8977 19.4913 15.9939 19.4913 16.0945C19.4913 16.1954 19.4517 16.2916 19.3801 16.3621L18.3571 17.3889C18.2833 17.4632 18.1872 17.5 18.0904 17.5C17.9933 17.5 17.8964 17.4632 17.8234 17.3889L14.2501 13.8048L10.6769 17.3889C10.6038 17.4632 10.5069 17.5 10.4099 17.5C10.3131 17.5 10.2169 17.4632 10.1431 17.3889L9.12009 16.3621C9.04852 16.2916 9.00886 16.1954 9.00886 16.0945C9.00886 15.9939 9.04852 15.8977 9.12009 15.8269L12.7077 12.25L9.11063 8.67358C8.96316 8.52578 8.96316 8.28578 9.11063 8.13794L10.1328 7.11048C10.2039 7.03966 10.2993 7 10.3998 7C10.5007 7 10.5962 7.0397 10.6666 7.11048L14.2501 10.6511L17.8335 7.11048C17.904 7.03966 17.9995 7 18.1004 7C18.2009 7 18.2963 7.0397 18.3674 7.11048L19.3896 8.13794C19.537 8.28573 19.537 8.52573 19.3896 8.67358L15.7924 12.25L19.3801 15.8269ZM23.3879 4.63558C22.9705 4.21816 22.4389 4 21.8379 4H7.875C6.7358 4 5.82577 4.44072 5.17003 5.33317L0 12.2471L5.175 19.1156L5.18344 19.1264L5.19206 19.1373C5.51569 19.5524 5.86819 19.8733 6.26972 20.0943C6.74452 20.3558 7.28461 20.5 7.875 20.5H21.8438C23.0715 20.5 24 19.4567 24 18.2031V6.20312C24 5.60214 23.8053 5.05295 23.3879 4.63558ZM22.5 18.2031C22.5 18.6174 22.258 19 21.8438 19H7.875C7.16405 19 6.73439 18.6875 6.375 18.2266L1.875 12.25L6.375 6.22947C6.82031 5.62009 7.3672 5.5 7.875 5.5H21.8203C22.2345 5.5 22.5 5.78889 22.5 6.20312V18.2031Z" fill="white"/>
</mask>
<g mask="url(#mask0)">
<rect width="24" height="24" fill="#5F51CB"/>
</g>
</svg>
